# xmcd
#
# Track frame offsets: 
#        150
#        13473
#        24564
#        40843
#        53735
#        71707
#        82976
#        90619
#        101684
#        119375
#        134739
#        147538
#        160642
#        172994
#        182577
#        193605
#        207305
#        217595
#        229120
#        243612
#        257895
#        271344
#        284820
#        295090
#        308890
#        322263
#        341327
#
# Disc length: 4779 seconds
#
# Revision: 1
# Processed by: cddbd v1.5.2PL0 Copyright (c) Steve Scherf et al.
# Submitted via: ExactAudioCopy v0.99pb5
#
DISCID=9c12a91b
DTITLE=Joe Dassin - Joe Dassin vol. 2
DYEAR=2003
DGENRE=Musical
TTITLE0=Un Peo Comme Toi
TTITLE1=Celle Gue J Oublie
TTITLE2=Que Sont Devenues Mes Amours
TTITLE3=Ma Musique
TTITLE4=La Vida Viene La Vie Se Chante
TTITLE5=Le Cheval De Fer
TTITLE6=La Complainte De L'heure De Pointe
TTITLE7=Quand On A Seize Ans
TTITLE8=Si Tu Me Extranas Si Tu Penses A No!
TTITLE9=Chanson Triste
TTITLE10=C'est La Nuit
TTITLE11=S'aimer Sous La Pluie
TTITLE12=Au Bout Des Rails
TTITLE13=Joli Minou
TTITLE14=Regarde-Toi
TTITLE15=C'est Ma Tournee
TTITLE16=Le Moustique
TTITLE17=Moi J Ai Dit Non
TTITLE18=Darlin
TTITLE19=Carolina
TTITLE20=Guantanamera
TTITLE21=Comment Te Dire
TTITLE22=Un Peu De Paradis
TTITLE23=A La Sante D'hier
TTITLE24=Je Viens Comme Un Voleur
TTITLE25=The Guitar Don't Lie Le Marche Aux Puces
TTITLE26=Si Tu Penses A Moi (No Woman No Cry)
EXTD=
EXTT0=
EXTT1=
EXTT2=
EXTT3=
EXTT4=
EXTT5=
EXTT6=
EXTT7=
EXTT8=
EXTT9=
EXTT10=
EXTT11=
EXTT12=
EXTT13=
EXTT14=
EXTT15=
EXTT16=
EXTT17=
EXTT18=
EXTT19=
EXTT20=
EXTT21=
EXTT22=
EXTT23=
EXTT24=
EXTT25=
EXTT26=
PLAYORDER=
